<?xml version="1.0" encoding="UTF-8"?>

<svg width="771" height="805" viewBox="0 0 771 805" xmlns="http://www.w3.org/2000/svg"><g transform="translate(771 0) scale(-1 1) translate(-.99629 1.9926)"><path d="m124.25 771.34c-.6875-.27741-1.25-1.3781-1.25-2.446 0-2.3265 6.1014-14.698 10.181-20.643 4.3118-6.2839 12.629-14.249 14.88-14.249 1.0808 0 5.2128.9 9.1823 2s8.3513 1.9958 9.7373 1.9906c3.4086-.0127 11.402-4.7307 17.874-10.549 6.4416-5.7915 8.6458-10.419 14.977-31.441l4.6684-15.5.0455-34.5c.0386-29.298.32034-35.857 1.8683-43.5 2.0124-9.9364 1.7744-18.798-.83697-31.163-.83204-3.9397-1.9899-12.94-2.573-20-1.1046-13.374-2.3236-19.501-8.5228-42.837-3.099-11.666-3.7996-16.168-4.2015-27-.7753-20.894 2.6813-31.24 18.199-54.467 9.4319-14.118 11.802-18.944 16.472-33.529 5.7102-17.836 8.0511-29.242 8.0053-39.004-.0397-8.4514-1.0744-16.953-2.2004-18.079-.27461-.27462-4.4943-1.8746-9.377-3.5555-6.6181-2.2783-10.787-3.0786-16.378-3.1443-12.669-.14884-17.778 3.2223-28.173 18.589-3.2782 4.8461-6.4928 8.6491-7.1435 8.4512-2.0025-.60899-11.359-15.282-13.671-21.439-3.0694-8.1736-2.5884-18.833 1.1772-26.091 3.1815-6.1317 11.776-17.958 13.57-18.675.6927-.27646 5.8677.19761 11.5 1.0535 14.238 2.1636 27.113 1.5575 32.076-1.5101 3.7134-2.295 11.431-12.346 9.8777-12.864-.44066-.14689-5.0187 1.5622-10.173 3.7979-16.283 7.0624-29.071 8.9333-33.154 4.8505-4.3356-4.3356-.0184-17.629 8.2796-25.495 18.78-17.802 58.399-30.486 105.94-33.915 7.99-.57637 9.6967-.44481 10.168.78376.3116.81201-2.0966 6.2747-5.3516 12.139-3.255 5.8647-5.9182 10.883-5.9182 11.153s2.1942 3.2927 4.876 6.7184c25.84 33.007 40.785 74.224 45.769 126.23.84342 8.8 1.6711 16.14 1.8392 16.312.16816.17135 2.9406-.0537 6.1609-.5l5.8551-.81155 3.6934-7c2.0314-3.85 5.12-11.275 6.8637-16.5 2.9438-8.8213 3.1342-10.214 2.6649-19.5-.34282-6.7823-1.5432-13.861-3.7305-22-4.3889-16.33-4.9823-27.329-2.0512-38.019 5.3405-19.477 18.547-39.037 41.192-61.013 20.161-19.564 43.744-36.892 78.786-57.886 16.725-10.02 32.678-20.926 118.58-81.062 84.792-59.358 106.96-74.519 108.94-74.519 3.4437 0 11.563 23.825 11.563 33.93 0 18.146-11.864 35.938-35.859 53.776-7.4524 5.5403-136.89 94.074-187.12 127.99l-23.987 16.195-10.766-.58243c-5.921-.32033-10.541-.3413-10.266-.0466s3.425 2.5003 7 4.9013 7.9127 5.4196 9.6392 6.708l3.1392 2.3424 3.3608-3.5572c3.5651-3.7735 32.807-24.616 131.36-93.629 68.854-48.216 80.278-56.026 81.939-56.026 1.7752 0 6.1026 8.7244 9.622 19.399 2.2973 6.9678 2.7195 18.959.90714 25.767-1.6724 6.282-7.4412 16.836-12.339 22.574-8.5479 10.014-19.513 18.562-55.674 43.399-20.308 13.949-56.393 38.753-80.19 55.12l-43.266 29.759-21.479-1.274-4.0103 4.0103c-5.0696 5.0696-5.1661 7.8954-.6187 18.12 2.9959 6.7361 3.4714 9.0033 4.0757 19.432.52221 9.0129.37782 12.175-.61027 13.366-1.6108 1.9409-92.795 62.476-94.857 62.974-2.384.57507-11.5-4.9081-11.5-6.9171 0-1.2096 13.505-10.831 43-30.635l43-28.872.5-39.861c.49474-39.441.5247-39.907 2.8463-44.26l2.3463-4.399-5.3991.63456c-2.9695.34901-6.7642.90758-8.4326 1.2413-4.9187.98373-6.3515-1.3396-6.4134-10.399-.0513-7.5148-.0887-7.6268-1.75-5.2522-.93365 1.3345-2.836 5.0935-4.2273 8.3533-2.4614 5.7665-2.8612 6.1387-14.781 13.759-9.3073 5.9503-13.625 8.0974-17.97 8.9361-3.1457.60715-6.7236 1.3177-7.951 1.579-3.7641.80132-9.27 6.3338-9.255 9.2998.007 1.4555 1.3886 6.4714 3.0694 11.146l3.0561 8.5.56803 31.634c.31242 17.399.28735 32.752-.0557 34.119-.45832 1.8261-4.6759 5.1547-15.904 12.551-18.89 12.445-29.214 17.929-42.748 22.708-21.526 7.6016-33.035 15.726-42.48 29.987-8.1181 12.257-13.698 33.085-11.789 44l.87476 5 .66723-7.5481c3.2595-36.873 37.263-63.031 70.228-54.024 30.388 8.3028 48.119 35.053 42.936 64.776-6.603 37.864-46.694 58.205-81.652 41.427-5.4371-2.6095-5.6779-2.6454-3.7126-.55347 5.1009 5.4297 20.66 11.951 31.866 13.356 22.066 2.7669 42.319-4.8603 58.457-22.015 8.7259-9.2757 14.447-19.777 17.611-32.328 2.5381-10.068 2.5117-16.011-.12823-28.805-1.1673-5.657-2.3358-11.933-2.5966-13.947l-.47422-3.6617 32.847-21.713c61.003-40.326 58.674-38.93 69.188-41.473 8.7741-2.122 9.5232-2.5089 12.341-6.3747 1.6502-2.2636 3.8757-5.8174 4.9455-7.8975 1.3098-2.5466 5.2467-6.239 12.053-11.304 14.257-10.61 35.179-24.414 37.004-24.414 1.6766 0 6.4059 10.346 9.371 20.5 6.4114 21.956-4.1681 44.083-31.056 64.951-4.4 3.415-32.975 23.217-63.5 44.005-30.525 20.788-57.672 39.877-60.326 42.42-4.727 4.5284-14.674 19.307-14.674 21.802 0 2.3574 43.608 50.831 71.359 79.321 9.911 10.175 17.699 17.647 17.306 16.605-2.1025-5.5821-4.7141-17.824-5.2268-24.501-1.9346-25.193 13.403-54.111 34.047-64.193 6.2866-3.0704 7.8368-3.411 15.5-3.4062 7.0857.004 9.4379.44169 14.015 2.6052 6.4061 3.0282 13.196 8.0352 22.062 16.268l6.3304 5.8787-.24048 6.9982c-.59158 17.216-3.775 26.589-14.796 43.563-8.4402 13-8.1097 13.513-17.293-26.819-4.6956-20.623-6.4634-27-7.4848-27-1.3205 0-13.343 7.6964-16.554 10.597-4.8716 4.4012-9.6402 14.053-11.724 23.73-1.4386 6.6805-1.5133 9.0072-.50999 15.891 1.9788 13.576 6.9205 21.866 29.082 48.783 21.979 26.695 30.089 44.481 30.095 66 .009 29.384-16.373 47.655-40.928 45.647-8.0506-.65832-11.117-1.4733-26.095-6.9354l-9.5548-3.4844-5.9452 2.4417c-3.2699 1.3429-9.7702 3.6455-14.445 5.1168l-8.5 2.6751-68.59.31403c-61.064.27957-68.732.14347-69.88-1.2402-2.5575-3.0816 5.6987-21.264 14.573-32.094 4.4568-5.4389 4.5273-5.4393 19.898-.0925 11.86 4.1257 27.671 6.3131 37.75 5.2229 4.0745-.44073 6.7493-1.1941 6.7482-1.9005-.003-1.7499-9.0998-11.228-21.703-22.611-23.023-20.795-34.295-41.998-34.295-64.509 0-14.774 3.5554-23.537 15.063-37.124 3.2022-3.7809 5.6495-7.0471 5.4384-7.2582s-3.0941 1.2626-6.4066 3.2749c-8.3095 5.0478-17.158 14.052-23.756 24.175-3.0583 4.6919-6.1233 8.7466-6.8111 9.0105-2.5217.96768-55.135-19.371-65.205-25.207-2.2979-1.3316-4.975-2.4211-5.949-2.4211-4.8271 0-15.899 16.712-22.856 34.5-1.5059 3.85-5.4148 12.805-8.6866 19.901-3.2717 7.0954-7.0615 16.31-8.4218 20.477-2.7154 8.3184-5.3978 23.178-5.4041 29.938-.006 6.4455-1.3068 8.1627-6.2892 8.3026-9.0426.25384-9.692.70207-12.143 8.3817-3.6644 11.48-7.9714 18.747-16.447 27.75l-3.5304 3.75-41.547-.0789c-22.851-.0434-42.11-.30592-42.797-.58333zm444.35-23.238c13.455-8.2046 11.555-33.702-4.3931-58.971-5.9792-9.4737-25.199-34.474-25.936-33.737-.2348.23479 1.2366 4.8553 3.2698 10.268 6.3312 16.854 7.6194 25.593 7.2637 49.278-.35271 23.486.142 25.979 6.2498 31.497 4.5764 4.1345 8.6712 4.6379 13.546 1.6652zm-273.92-248.29c-.31922-.79773-.55618-.56078-.60416.60417-.0434 1.0542.19293 1.6448.52522 1.3125s.36781-1.1948.0789-1.9167zm117.97-59.905c-2.009-2.3471-3.6527-4.8794-3.6527-5.6273 0-1.1801 29.539-21.142 80-54.064 7.975-5.203 14.777-9.8964 15.116-10.43s.38786-8.112.10931-16.842l-.50645-15.872 9.3977-19.572 24.192-16.968c66.53-46.664 106.39-73.916 108.19-73.971 2.3061-.0704 5.8787 6.568 9.6543 17.939 3.1057 9.3536 3.0892 21.541-.0402 29.646-4.5231 11.715-15.364 25.294-28.614 35.84-6.31 5.0225-37.815 26.837-65.228 45.164l-16.228 10.85h-20.097l-11.223 11.311c-10.611 10.694-13.457 12.803-52.19 38.68-22.532 15.053-41.926 27.553-43.097 27.777-1.5456.29547-3.1326-.76385-5.7829-3.8602zm113.74-53.534c-2.1392-1.4448-4.2202-3.1323-4.6242-3.75-1.3227-2.0221-.79532-6.0617 1.2237-9.3731 1.8449-3.0259 2.3568-3.25 7.4248-3.25 6.4807 0 8.5861 1.6276 8.5861 6.6372 0 3.8695-1.2143 6.7258-4.2993 10.113-2.6145 2.8705-3.5668 2.8274-8.3112-.37686zm-106.78-12.955c-.33385-.86998-.59129-11.107-.5721-22.75.0649-39.41 3.2665-46.818 27.287-63.134 4.67-3.1722 8.9831-5.4636 9.5845-5.0919.75714.46794 1.0935 11.278 1.0935 35.142v34.466l-17.517 11.475c-9.6344 6.3112-17.911 11.475-18.393 11.475-.48181 0-1.1492-.7118-1.483-1.5818zm71.499-45.319c-3.8481-3.5946-4.1388-8.2665-.8214-13.201 3.8888-5.7844 9.458-4.9079 14.183 2.2322 3.6792 5.5597 3.3095 7.4212-2.1632 10.892-5.8417 3.7047-7.304 3.7147-11.198.0768zm-85.026-20.798c-2.794-3.1348-5.08-6.458-5.08-7.385 0-3.7314 11.467-7.7591 15.96-5.6057 3.7724 1.808 5.4358 5.9597 4.0592 10.131-1.3355 4.0465-5.5934 8.5594-8.076 8.5594-.981 0-4.0696-2.5648-6.8636-5.6996z" fill="#b4a7c7"/><path d="m124.29 769.3c-.40724-1.0613 1.1838-5.2271 4.2412-11.105 5.3302-10.247 16.26-23.197 19.58-23.197 1.0555 0 5.1668.9 9.1363 2s8.3778 2 9.7962 2c3.46 0 13.332-6.0315 19.33-11.81 5.9604-5.7423 8.4776-11.163 14.483-31.19l4.6482-15.5.03721-34.5c.0308-28.544.33289-35.943 1.75-42.86 2.2032-10.754 2.1566-15.325-.29498-28.94-1.1043-6.1326-2.448-16.538-2.986-23.124-1.0284-12.587-2.4427-19.658-8.5158-42.576-2.9653-11.19-3.8152-16.455-4.2344-26.229-.89145-20.788 2.254-30.606 16.97-52.967 4.9962-7.5919 10.312-16.503 11.813-19.803 3.4788-7.6478 8.401-23.051 11.664-36.5 2.2773-9.3864 2.4865-11.826 1.9718-23-.68182-14.805-.37789-14.383-13.368-18.561-21.584-6.9416-33.35-2.2261-45.616 18.281-1.7223 2.8795-3.727 5.464-4.455 5.7433-1.6651.63895-10.453-12.835-13.346-20.463-1.6466-4.3414-1.9976-7.0853-1.6665-13.025.47924-8.5974 3.4757-15.265 11.394-25.354 4.567-5.8189 4.6044-5.8409 8.7346-5.1508 16.98 2.8374 28.305 3.2964 35.148 1.4244 2.5916-.70897 5.5845-2.7523 8.5-5.8032 5.0138-5.2466 8.4536-10.693 7.2307-11.449-.44057-.27229-3.9352.85858-7.7659 2.513-12.928 5.5837-20.933 8.032-28.014 8.5686-10.41.78876-12.155-1.6223-8.9605-12.379 3.0868-10.394 12.173-18.79 29.158-26.942 22.64-10.866 49.993-17.344 84.102-19.918 11.375-.85831 11.334-.99751 3.75 12.514-3.025 5.3897-5.5 10.082-5.5 10.427s2.6436 4.1026 5.8746 8.3503c3.231 4.2477 7.7746 10.648 10.097 14.223 5.3529 8.2407 16.966 32.187 20.369 42 7.2304 20.851 12.58 47.119 14.657 71.97.57327 6.8585 1.4112 12.839 1.8621 13.29s3.7044.46441 7.23.03l6.4102-.78972 3.177-6.5c1.7474-3.575 4.6517-10.325 6.4542-15 3.0555-7.9251 3.2758-9.3116 3.2568-20.5-.0177-10.447-.44744-13.553-3.321-24-6.1943-22.521-5.35-33.972 3.908-53 16.389-33.685 51.754-65.92 112.31-102.37 18.136-10.916 36.482-23.44 113.72-77.629 74.739-52.437 112.71-78.502 114.37-78.502 1.5704 0 6.5103 11.891 9.1136 21.937 5.3035 20.467-4.3691 40.573-28.984 60.246-3.85 3.0772-25 17.864-47 32.86-22 14.996-58.9 40.185-82 55.975-23.1 15.791-52.04 35.489-64.311 43.773l-22.311 15.063-21.657-1.1425-2.9444 4.0646c-1.6194 2.2356-3.7558 6.2378-4.7474 8.894-2.4646 6.6014-3.3743 7.4723-16.104 15.419-8.9828 5.6074-12.482 7.2128-18.035 8.2741-11.103 2.1219-16.407 5.882-16.377 11.609.007 1.3901 1.3915 6.3525 3.0758 11.027l3.0624 8.5.54817 33c.52139 31.388.45665 33.08-1.3258 34.64-4.1841 3.6612-30.685 20.797-38.019 24.584-4.3203 2.2306-12.58 5.7208-18.355 7.756-17.689 6.234-24.611 10.104-33.093 18.502-16.19 16.03-24.577 38.608-21.831 58.768 3.2662 23.984 23.624 48.828 47.321 57.747 16.981 6.3916 40.091 4.6391 55.603-4.2166 13.617-7.7736 24.296-19.393 31.049-33.781 7.1564-15.249 8.3946-28.13 4.3735-45.5-.8276-3.575-1.7421-8.3-2.0322-10.5l-.52745-4 45.819-30.096c34.905-22.927 47.01-30.38 50.819-31.29 15.529-3.7079 15.082-3.4404 20.06-12.008 4.2036-7.2346 5.4508-8.4882 16.247-16.33 14.987-10.887 32.826-22.776 34.173-22.776.57527 0 2.1627 2.5251 3.5276 5.6113 11.463 25.919 8.6459 43.18-10.553 64.666-8.7471 9.789-11.279 11.601-114.67 82.104-22.519 15.356-26.447 18.822-33.469 29.53-6.2752 9.5706-6.7395 11.476-3.6313 14.904 1.3391 1.4767 6.0062 6.7349 10.371 11.685 18.892 21.423 36.688 40.903 48.419 53 6.9336 7.15 16.534 17.229 21.333 22.399 4.7998 5.1692 8.9587 9.1667 9.2421 8.8832.28342-.28341-.60922-3.9602-1.9836-8.1706-1.3744-4.2104-3.0326-11.47-3.685-16.133-4.5607-32.601 18.681-69.068 45.386-71.211 11.858-.95182 21.97 3.8615 36.646 17.444l7.4145 6.8617-.22431 6.9286c-.32152 9.9317-2.5264 21.431-5.0941 26.569-3.3802 6.763-14.217 23.931-15.106 23.931-1.8567 0-2.9193-3.659-9.4388-32.5-5.1341-22.712-7.1446-29.5-8.738-29.5-2.1214 0-14.724 8.0955-18.243 11.718-4.7701 4.9116-9.1346 14.127-11.181 23.608-1.4451 6.6954-1.5188 9.0077-.51022 16 1.9764 13.702 7.3525 22.485 33.162 54.174 14.413 17.696 22.551 33.261 25.127 48.055 1.4419 8.2799.68014 24.107-1.4965 31.094-2.3118 7.4214-8.8457 16.672-14.352 20.319-11.78 7.8027-23.036 7.8601-44.869.22865l-14.001-4.8939-7.4324 2.8854c-19.903 7.7268-13.696 7.2038-89.432 7.5352-40.381.1767-68.575-.0771-69.416-.62481-2.9406-1.9152 6.0016-21.37 13.998-30.455 4.8984-5.5649 4.7031-5.5577 17.918-.66461 11.268 4.1722 26.648 6.2865 38.419 5.2818 5.71-.48738 9.0694-1.2148 9.3368-2.0218.40156-1.2118-5.3024-7.1469-27.62-28.739-21.04-20.356-30.149-40.146-28.895-62.775.78434-14.153 4.1722-21.12 17.594-36.181 2.9343-3.2929 4.8773-6.1397 4.3178-6.3262-2.6326-.87755-17.459 9.1357-23.944 16.171-2.3446 2.5436-6.7542 8.4467-9.7991 13.118s-5.962 8.4932-6.4824 8.4932c-1.2956 0-32.462-11.424-42.928-15.734-4.675-1.9257-12.525-5.5-17.444-7.943-5.8515-2.9058-9.708-4.2502-11.152-3.8876-2.9649.74414-10.628 9.4118-14.276 16.147-1.626 3.0021-5.0747 10.512-7.6638 16.688-2.5891 6.1763-7.3075 16.88-10.485 23.787-8.2184 17.861-12.962 35.634-12.974 48.611-.006 6.2646-.71116 7.3303-4.8608 7.3428-2.0036.006-5.294.284-7.3118.61767-3.5985.59503-3.7177.76251-6.2188 8.739-3.0114 9.6039-8.1769 18.669-14.597 25.615l-4.6367 5.0172h-41.721c-38.329 0-41.774-.13809-42.373-1.6984zm443.51-19.707c15.023-7.8164 14.136-33.252-2.0926-60.034-5.4468-8.9888-29.275-39.561-30.834-39.561-.49519 0-.17784 1.6875.70521 3.75 11.26 26.3 11.809 28.987 11.897 58.25.0706 23.552.16372 24.685 2.4059 29.287 3.9762 8.1598 11.499 11.648 17.918 8.3084zm-230.53-203.13c-12.031-3.2405-25.054-12.512-32.281-22.984-4.366-6.3256-7.9566-15.873-9.1541-24.34-5.0775-35.904 31.667-69.93 66.633-61.703 34.613 8.1434 52.908 40.942 41.448 74.307-5.7319 16.688-20.861 30.036-39.381 34.744-7.3457 1.8672-20.286 1.8558-27.265-.024zm76.297-107.21c-1.9549-2.0625-3.5582-4.2636-3.563-4.8914-.005-.62776 5.0538-4.4364 11.241-8.4636 39.714-25.849 82.423-54.286 83.395-55.528.79673-1.0176 1.0116-6.3959.70574-17.665l-.43974-16.202 9.5885-19 32-22.32c72.132-50.312 98.64-68.34 99.819-67.888 1.9636.7535 8.52 17.847 9.7862 25.515 3.0304 18.35-7.5571 38.252-29.711 55.852-8.3285 6.6162-47.978 34.176-71.239 49.518l-10.345 6.8232h-20.156l-12.577 12.256c-11.81 11.508-15.022 13.887-52.665 39-22.049 14.709-40.583 26.744-41.187 26.744-.60401 0-2.6976-1.6875-4.6525-3.75zm-24.822-16.816c-2.6125-1.3599-4.75-2.9112-4.75-3.4472 0-1.2826 1.17-2.0976 47.355-32.987l39.622-26.5.0114-39.283.0114-39.283 2.5672-5.0662c1.412-2.7864 2.3163-5.3172 2.0095-5.6239-.30674-.30673-4.23-.0384-8.7184.59638-6.0244.85196-8.5138.86104-9.5095.0347-1.9597-1.6264-1.8688-14.738.10737-15.496.82412-.31624 4.7566 1.7591 9.0601 4.7814 4.1822 2.9371 8.2653 5.7902 9.0736 6.3402 1.1215.76311 2.2325.13781 4.6899-2.6397 1.7711-2.0018 14.695-11.718 28.72-21.592s36.975-26.043 51-35.931c76.852-54.184 131.8-92.337 132.99-92.337 1.3591 0 6.4473 10.355 9.056 18.43 1.7872 5.5322 2.105 8.4582 1.7809 16.402-.33682 8.2569-.85135 10.643-3.5242 16.341-7.0167 14.959-18.035 25.949-43.513 43.403-9.5117 6.516-32.369 22.242-50.794 34.946-18.425 12.704-47.133 32.438-63.795 43.852l-30.295 20.753-20.9-1.4-4.5046 4.5046c-5.6135 5.6135-5.7668 8.1756-1.1156 18.642 3.0236 6.8038 3.4602 8.9286 4.0506 19.711.51177 9.3473.36701 12.329-.63893 13.159-2.8947 2.3898-93.902 62.252-94.575 62.209-.3993-.0256-2.8635-1.1592-5.476-2.5192zm139.75-35.588c-6.3891-3.5766-7.8436-7.3475-4.9743-12.896 1.3969-2.7014 1.9708-2.9503 6.8-2.9503 2.9009 0 5.8143.54 6.4743 1.2 1.9719 1.9719 1.4036 8.2022-1.0852 11.895-2.5382 3.7664-4.2413 4.4158-7.2148 2.7513zm-107.83-14.513c-1.0768-1.0768-.7636-39.472.3916-48.011 1.32-9.757 5.2464-18.422 11.028-24.338 5.2826-5.4054 20.061-15.984 22.329-15.984 1.4548 0 1.5855 3.2739 1.3477 33.75l-.2633 33.75-15.969 10.75c-15.512 10.442-17.463 11.485-18.864 10.083zm71.02-45.138c-3.2394-3.3812-3.4738-7.3927-.69805-11.945 2.5711-4.217 6.5529-4.4121 10.202-.5 6.0513 6.488 6.1355 9.2827.38121 12.655-5.5736 3.2663-6.575 3.2451-9.8848-.2097zm-85.239-20.808c-5.6858-6.6554-5.3848-8.0078 2.3639-10.621 6.1491-2.074 9.7073-1.1613 11.245 2.8844 1.2293 3.2333-.078 7.6786-3.2516 11.057-3.2325 3.4408-5.0909 2.8452-10.358-3.3198z" fill="#9e8cb6"/><path d="m135.51 770.25c-5.494-.18139-10.365-.70566-10.824-1.165-2.2133-2.2133 12.946-26.416 19.838-31.673l3.3066-2.522 19.379 5.2795 6.1447-3.0549c3.3796-1.6802 8.9285-5.554 12.331-8.6085 7.0957-6.3701 9.1246-10.747 16.539-35.679l4.2613-14.328-.26005-31.815c-.20143-24.642.0819-33.94 1.2565-41.239 2.0221-12.566 1.9129-19.534-.53992-34.446-1.1308-6.875-2.4724-17.518-2.9811-23.65-.63354-7.6364-2.4881-17.248-5.8851-30.5-11.267-43.953-9.5128-57.512 11.512-88.983 9.8213-14.701 13.847-23.568 19.689-43.366 4.1086-13.924 4.1313-14.091 4.1764-30.831.0529-19.622.94971-17.989-12.258-22.319-11.231-3.6816-23.435-3.9438-29.742-.63908-4.95 2.5941-10.54 8.6007-16.323 17.538-2.4019 3.7125-4.7475 6.75-5.2124 6.75-1.2596 0-8.7264-11.346-11.734-17.832-2.1491-4.6333-2.6285-7.1292-2.6254-13.668.004-9.1474 1.9378-13.924 10.232-25.275l4.7079-6.4433 6.5.61896c3.575.34043 10.453 1.0385 15.284 1.5513 10.207 1.0833 18.334.0657 23.125-2.8956 3.2099-1.9838 11.591-12.805 11.591-14.965 0-1.7275-1.1717-1.3997-14.715 4.1161-12.072 4.9166-13.287 5.2096-21.785 5.25l-9 .0428-.31639-4.4319c-1.2478-17.48 21.968-34.349 61.942-45.008 18.254-4.8675 57.97-10.155 60.255-8.0213.49344.46058-1.5943 5.2523-4.75 10.902-3.0967 5.5441-5.6304 10.8-5.6304 11.681s1.7424 3.6881 3.8719 6.2394c12.366 14.815 25.714 39.795 32.996 61.747 7.4271 22.39 11.573 43.214 13.616 68.392.33468 4.125.84424 9.0216 1.1324 10.881l.52386 3.3813 6.5465-.52549c7.8853-.63295 8.6938-1.3637 13.555-12.251 9.6825-21.685 10.412-30.647 4.4237-54.316-4.8099-19.009-5.3579-24.959-3.1948-34.681 4.5213-20.323 17.301-40.213 40.176-62.528 21.563-21.035 43.287-37.087 81.092-59.917 15.81-9.5476 50.481-33.323 130.76-89.671 25.85-18.144 57.751-40.35 70.892-49.347 27.409-18.767 24.406-18.39 29.752-3.7296 3.0846 8.4595 3.356 10.14 3.356 20.779v11.575l-4.3647 8.8083c-3.5563 7.177-6.0566 10.506-13.5 17.973-12.048 12.087-3.0024 5.7515-191.88 134.4l-34.252 23.329-9.6574-.65248c-13.847-.93551-15.443.25267-22.162 16.495-1.1596 2.8034-3.7525 4.9618-13.028 10.845-9.7634 6.1928-12.851 7.6208-19.681 9.1031-8.3482 1.8117-11.906 3.743-15.321 8.318l-1.9729 2.6425 3.6611 11.421 3.6611 11.421v65l-16.75 11.017c-19.325 12.712-25.378 15.905-40.237 21.227-20.293 7.2694-30.752 13.897-39.312 24.912-13.776 17.726-19.386 38.929-15.235 57.585.97398 4.3778 3.7439 11.746 6.3486 16.887 6.2911 12.418 19.821 26.213 31.742 32.364 12.556 6.4786 21.756 8.6196 34.454 8.018 19.22-.91054 34.916-8.3977 48.824-23.291 7.8066-8.3592 14.866-21.292 17.725-32.47 2.1317-8.3355 1.4329-25.267-1.4858-36-1.1217-4.125-2.0472-8.0709-2.0566-8.7686-.0153-1.1315 17.28-12.83 73.787-49.911 15.954-10.469 18.056-11.551 26.946-13.86 5.3031-1.3779 10.378-3.1716 11.278-3.986.89994-.81443 3.3723-4.4492 5.494-8.0773 2.9787-5.0934 5.663-7.9707 11.78-12.627 12.947-9.856 36.906-25.759 37.89-25.151 1.4386.8891 5.7401 11.2 7.8684 18.861 5.1215 18.435-.0605 34.306-16.935 51.867-9.3151 9.6937-14.718 13.622-77.126 56.076-39.336 26.759-57.168 39.477-61.227 43.668-4.824 4.981-14.773 19.823-14.773 22.038 0 .72002 27.599 32.019 44.858 50.872 16.141 17.632 48.113 50.362 48.66 49.815.26796-.26796-.42936-3.1485-1.5496-6.4013-5.3494-15.533-6.5378-29.95-3.5376-42.914 2.7024-11.678 9.882-24.849 18.03-33.076 9.6243-9.7187 18.178-13.95 28.018-13.859 11.703.10813 20.352 4.6593 35.527 18.695l6.2274 5.7599-.68168 7.7401c-1.2431 14.115-2.5889 20.371-5.7194 26.587-4.143 8.2269-12.795 21.653-13.953 21.653-1.421 0-2.7365-4.1628-6.4785-20.5-6.8627-29.962-9.6225-40.371-10.826-40.833-1.521-.58364-15.106 7.4787-18.771 11.14-7.6211 7.614-12.804 21.551-12.804 34.431 0 15.797 5.8 26.801 28.269 53.634 26.511 31.66 35.621 55.998 30.106 80.431-3.8562 17.084-12.989 27.256-27.124 30.214-10.303 2.1556-19.335.57832-38.55-6.7321l-7.7983-2.967-11.202 4.091c-6.1609 2.25-13.452 4.5528-16.202 5.1172-8.4561 1.7356-41.782 2.2751-91.861 1.4871l-47.861-.75307.55996-3.4506c1.3476-8.3044 15.347-31.309 19.053-31.309.74852 0 3.8891 1.118 6.979 2.4846 9.9523 4.4014 20.34 6.6263 33.739 7.2265 14.645.65604 19.903-.007 19.868-2.5064-.0324-2.2742-7.925-10.689-22.193-23.662-23.692-21.541-33.728-40.041-33.936-62.556-.16205-17.56 2.6574-24.403 16.678-40.479 9.21-10.56 7.5315-11.324-5.7266-2.6036-8.8247 5.8041-17.953 15.18-24.237 24.895-2.562 3.9605-5.3482 7.2009-6.1914 7.2009-3.9687 0-44.191-15.471-59.645-22.942-10.029-4.848-10.201-4.8907-13.084-3.2357-6.3061 3.6208-14.592 16.932-21.737 34.919-1.6949 4.2668-5.7003 13.416-8.901 20.332-6.9931 15.11-10.629 26.501-12.105 37.926-.60414 4.675-1.3936 10.75-1.7542 13.5l-.65578 5-6.6578.29373c-3.6618.16155-7.0922.83655-7.6232 1.5-.53099.66345-1.7351 3.9063-2.6758 7.2063-2.5715 9.0207-8.2573 19.071-14.501 25.633l-5.5829 5.8671-30.973-.20929c-17.035-.11511-35.468-.3577-40.962-.5391zm434.6-21.707c5.9578-3.9427 8.3876-10.184 8.3872-21.544-.00069-18.153-7.8714-34.303-30.214-62-11.306-14.016-14.281-17.338-14.939-16.68-.24864.24864 1.608 5.2752 4.1258 11.17 8.3627 19.579 8.7278 21.593 9.4314 52.01.678 29.313.83935 30.164 6.7567 35.616 6.0561 5.5802 9.6996 5.8965 16.452 1.4281zm-228.23-201.51c-8.3731-1.5124-16.533-5.1389-23.507-10.448-21.112-16.07-28.245-43.175-17.439-66.265 7.717-16.491 22.446-28.693 38.864-32.194 6.5578-1.3987 18.213-1.4226 24.201-.0496 8.2829 1.8992 19.168 7.9159 25.743 14.229 11.172 10.727 15.969 20.849 16.914 35.69 1.7118 26.879-14.018 49.796-39.337 57.313-6.5397 1.9414-19.409 2.8141-25.439 1.725zm72.266-107.52c-1.7313-1.9718-3.1478-4.1934-3.1478-4.9368 0-1.2185 16.313-12.271 73.69-49.927 10.346-6.7899 19.437-13.1 20.203-14.023 1.1142-1.3426 1.2823-4.8181.84147-17.403l-.55081-15.726 8.9591-19.162 14.179-9.9049c78.149-54.594 117.09-81.296 117.86-80.82.50801.31397 2.0221 3.0546 3.3646 6.0902 11.137 25.183 8.1586 42.417-10.869 62.896-3.7518 4.038-9.6358 9.5813-13.075 12.318-5.935 4.7226-59.251 41.498-74.043 51.072l-6.9376 4.4904-8.7343-.3168c-4.8784-.17694-9.6054.14943-10.708.73931-1.0853.58086-6.8575 5.9455-12.827 11.921-10.082 10.093-13.753 12.799-51.625 38.06-22.424 14.957-41.37 27.424-42.102 27.705-.73195.28088-2.7473-1.1026-4.4786-3.0744zm-25.398-17.584c-2.0625-1.0888-3.7476-2.5314-3.7448-3.2058.003-.67436 17.839-13.151 39.637-27.726s41.37-27.74 43.495-29.256l3.8631-2.7563v-39.534c0-37.56.0998-39.729 2-43.454 2.7108-5.3137 2.6338-7.3699-.25-6.6734-1.2375.29889-5.5125.85582-9.5 1.2376l-7.25.69418v-8.1292c0-4.4711.34554-8.1292.76787-8.1292.98249 0 7.2351 4.1477 14.094 9.3492 5.7697 4.3757 5.6022 4.3931 8.9569-.93079 1.6995-2.6971 207.72-147.22 211.14-148.12 2.3088-.60376 3.4244.999 7.1211 10.231 6.4098 16.008 6.2718 28.341-.46888 41.911-7.2881 14.672-18.202 24.811-49.608 46.087-9.625 6.5206-28.3 19.341-41.5 28.489-24.26 16.814-74.415 51.19-88.839 60.89l-7.8388 5.2715-8.3407-1.2409c-9.8032-1.4585-12.765-.65937-17.486 4.7182-4.1697 4.749-4.0998 10.272.23546 18.62 3.1521 6.0699 3.2313 6.5382 3.25 19.221l.0191 13-46 30.667c-25.3 16.867-46.9 30.684-48 30.706-1.1.0215-3.6875-.8518-5.75-1.9406zm138.47-36.527c-5.1419-3.0663-6.1548-6.1208-3.5267-10.635 1.6521-2.838 2.5078-3.3092 6.4822-3.5694 5.236-.34287 7.8214 1.449 7.8214 5.4209 0 2.9683-2.0855 7.2413-4.6802 9.5895-1.7856 1.6159-2.1071 1.5735-6.0967-.80565zm-106.58-29.606c-.60112-15.634-.0262-26.67 1.9572-37.569 1.1176-6.1414 5.8887-14.474 11.051-19.299 6.273-5.8638 20.112-15.198 21.376-14.417 1.5564.96189 1.2965 64.693-.27208 66.717-1.1952 1.5421-29.501 20.353-32.164 21.375-.99753.38279-1.43-3.3499-1.9474-16.807zm71.284-28.722c-3.2459-3.2459-3.6296-5.8099-1.489-9.9494 2.0998-4.0605 4.1702-5.4436 7.0622-4.7178 2.5817.64796 8.5038 7.7948 8.5038 10.262 0 1.3109-8.4351 7.3279-10.273 7.3279-.48463 0-2.1965-1.3154-3.8042-2.9231zm-84.779-20.609c-5.3256-5.8271-5.6019-7.4822-1.5567-9.3254 4.9873-2.2724 10.318-2.5377 12.438-.61897 3.4765 3.1462 1.663 11.968-2.9701 14.447-2.6661 1.4269-2.3025 1.6339-7.9112-4.5029z" fill="#8973a7"/><path d="m125 768.37c0-.89604 2.132-5.6727 4.7378-10.615 5.1658-9.7975 15.26-21.756 18.364-21.756 1.0582 0 5.1718.9 9.1413 2 9.7094 2.6906 11.452 2.5558 18.011-1.3935 15.371-9.2561 18.616-14.2 26.499-40.374l4.7381-15.732.005-34c.004-29.198.2801-35.58 1.9542-45.189l1.9494-11.189-2.7246-17.311c-1.4985-9.5213-2.7133-19.165-2.6994-21.43.0397-6.502-2.6696-20.33-7.6059-38.819-4.0183-15.051-4.6176-18.661-5.0844-30.628-.82604-21.176 1.9814-29.898 16.942-52.631 10.775-16.373 13.355-21.768 18.6-38.887 6.2321-20.342 7.5307-28.122 6.816-40.829-.3488-6.2018-1.1693-11.749-1.9008-12.851-1.7042-2.5666-11.257-6.375-20.883-8.3255-14.553-2.9488-24.275 1.2766-33.568 14.589-8.9762 12.859-7.8231 12.023-11.209 8.1273-1.6124-1.855-4.6527-6.7634-6.7562-10.908-3.2645-6.4317-3.8762-8.6735-4.1777-15.313-.30493-6.7145.004-8.5574 2.2579-13.481 3.0121-6.5793 12.234-19.428 13.939-19.422.63544.002 5.2053.66923 10.155 1.4825 10.674 1.7538 22.444 1.9269 28 .41177 2.6545-.72385 5.6818-2.8258 9-6.2492 5.2647-5.4316 9.3903-12.092 8.2169-13.265-.38247-.38246-2.3877-.004-4.4562.84203-23.215 9.4903-24.626 9.9563-31.807 10.499-9.5985.72593-10.914-.20447-10.002-7.0766 1.2449-9.3849 7.0928-17.184 18.224-24.304 15.251-9.7559 42.13-18.969 66.366-22.748 13.512-2.1069 35.842-4.0442 36.702-3.1842.70685.70686-.55805 3.3543-7.7261 16.171l-3.4016 6.0822 7.6066 10.098c25.062 33.27 39.575 74.864 43.793 125.51.58511 7.0251 1.3302 13.467 1.6557 14.315.48937 1.2753 1.7383 1.4235 7.2098.85559 3.6398-.3778 7.2133-1.1646 7.941-1.7485 1.5528-1.2459 6.12-10.91 10.49-22.195 2.8194-7.2817 3.0977-9.0326 3.0993-19.5.002-10.011-.47834-13.366-3.7051-25.909-5.9734-23.219-5.1016-32.831 4.7695-52.591 7.0326-14.078 15.552-25.35 30.49-40.344 20.461-20.536 43.239-37.545 80.533-60.134 18.66-11.302 35.636-22.895 115.5-78.873 82.982-58.163 111.06-77.339 112.46-76.801 1.3382.5135 6.8524 14.738 8.5299 22.004 4.4512 19.28-5.2028 38.745-28.713 57.895-5.9327 4.8323-86.545 60.172-184.14 126.41l-31.361 21.284-21.399-1.2244-3.0096 3.6512c-1.6553 2.0082-4.0593 6.2345-5.3422 9.3919-1.2829 3.1574-2.7757 6.3111-3.3172 7.0083-.5415.69715-5.9925 4.3937-12.113 8.2145-8.8855 5.5466-12.595 7.2553-18.402 8.4769-8.5967 1.8084-12.269 3.5479-15.107 7.156-2.8067 3.5681-2.6452 6.0505 1.0909 16.766l3.1792 9.1187.1416 65.816-15.215 10.213c-18.309 12.289-27.326 17.09-41.824 22.269-16.314 5.8268-24.486 10.318-32.46 17.841-13.872 13.086-22.038 30.733-22.808 49.287-.50886 12.263.68308 18.655 5.3918 28.915 8.7511 19.068 24.839 34.006 44.415 41.239 5.748 2.1237 8.1774 2.4027 21 2.4113 13.275.009 15.186-.22597 22.624-2.7803 13.596-4.6694 27.358-15.073 35.331-26.71 13.037-19.027 16.32-36.7 11.085-59.666-1.2747-5.5914-2.0748-10.799-1.7782-11.572.29665-.77305 20.745-14.723 45.441-30.999 44.454-29.299 44.989-29.614 53.655-31.673 4.8145-1.1434 9.6065-2.5354 10.649-3.0932 1.0423-.55783 3.9852-4.502 6.5399-8.7648 4.1862-6.9854 5.7462-8.5504 15.8-15.851 13.836-10.047 32.287-22.382 33.48-22.382 1.3469 0 7.1582 15.409 8.837 23.431 3.0266 14.463-1.7718 28.343-15.253 44.123-8.4718 9.9163-12.15 12.588-96.238 69.902-35.746 24.364-43.069 29.765-47.084 34.728-5.512 6.8122-12.087 17.581-12.087 19.797 0 3.5683 92.82 104.53 94.529 102.82.26826-.26826-.82546-4.4964-2.4305-9.3959-5.6938-17.381-6.3109-31.967-1.9546-46.2 7.2066-23.545 24.698-40.848 42.477-42.021 11.699-.77161 22.057 4.2595 36.059 17.515l7.1804 6.7976-.47761 5c-1.5132 15.842-2.5852 21.334-5.2927 27.12-4.0852 8.7298-13.122 22.535-14.464 22.096-1.105-.36149-3.8314-10.646-11.093-41.846-2.0009-8.5968-4.2636-16.472-5.0281-17.5-1.34-1.8021-1.5814-1.7644-6.6976 1.0437-10.007 5.4925-13.992 8.805-17.937 14.909-5.4107 8.3715-8.297 18.174-8.297 28.178 0 15.983 5.5565 26.979 26.53 52.5 14.109 17.168 19.987 25.567 24.83 35.48 5.6586 11.582 8.0671 21.575 8.0671 33.47 0 16.395-4.1418 27.323-13.649 36.013-10.478 9.5766-24.245 10.444-45.268 2.8518-6.5662-2.3712-13.315-4.1667-15.582-4.1457-2.2.0204-9.4 2.0158-16 4.4342l-12 4.3971-68.404.29557c-39.309.16985-68.785-.0847-69.298-.59845-2.0789-2.0789 6.9158-21.015 13.793-29.038 4.2903-5.0048 4.385-5.0068 16.916-.3553 10.864 4.0329 20.558 5.3826 35.982 5.0099 11.735-.28362 13.022-.49351 13.345-2.1763.25499-1.3294-5.501-7.6259-20.111-22-22.647-22.281-28.184-29.739-33.443-45.051-2.4914-7.253-2.7742-9.4279-2.7426-21.087.0498-18.369 1.4343-21.308 20.607-43.745 1.7602-2.06 2.8885-4.0574 2.5073-4.4386-.98022-.98022-9.0652 3.1131-16.244 8.2239-9.0043 6.4109-17.565 16.354-24.98 29.016-1.0172 1.7368-1.6542 1.6302-12-2.0071-17.406-6.1197-39.926-15.221-49.794-20.124-5.8384-2.9011-9.8754-4.3286-11.259-3.9813-3.5113.88128-12.211 11.281-16.39 19.592-2.1378 4.2519-6.1166 13.071-8.8419 19.598s-7.1753 16.817-9.889 22.867c-6.5197 14.535-9.0055 23.511-10.525 38.004l-1.258 11.996-14.876 2-3.0462 9.042c-3.4702 10.301-7.8721 18.069-14.055 24.802l-4.2746 4.6556h-41.608c-37.785 0-41.608-.14971-41.608-1.6292zm442.3-17.722c4.274-1.7858 9.3369-7.6714 10.642-12.372 1.5316-5.5151 1.2917-17.96-.47839-24.817-3.5531-13.764-12.466-28.56-31.037-51.522-14.802-18.302-16.978-19.38-10.63-5.2663 4.8741 10.838 8.8192 23.145 10.21 31.85.57628 3.6074.92886 15.878.78352 27.268-.25566 20.035-.18701 20.867 2.1071 25.549 2.6183 5.344 8.9957 10.66 12.788 10.66 1.3101 0 3.8372-.60797 5.6156-1.351zm-233.2-206.22c-13.8-4.7-24.438-13.93-31.462-27.297-11.253-21.414-7.0854-45.985 10.792-63.632 7.8184-7.7172 15.146-11.962 24.997-14.482 9.4408-2.4146 17.053-2.56 25.112-.47979 25.654 6.6223 42.333 26.897 42.748 51.961.26565 16.04-4.3484 28.286-14.853 39.421-14.456 15.324-37.682 21.201-57.335 14.507zm79.887-105.94c-3.369-3.4759-3.3844-3.533-1.4462-5.3743 1.0774-1.0236 22.325-15.239 47.217-31.589s45.627-30.387 46.077-31.193.61544-8.5474.36595-17.204l-.45362-15.74 8.6189-18.55 42.567-29.744c64.616-45.151 87.783-61.092 88.788-61.092 1.1269 0 6.8324 13.641 8.8034 21.047 4.9846 18.73-4.5707 39.091-27.092 57.729-6.4045 5.3001-55.424 39.426-74.812 52.082l-7.8783 5.1427h-20.09l-12.577 12.254c-11.831 11.528-14.958 13.84-52.736 39-22.087 14.71-40.562 26.746-41.054 26.746-.49213 0-2.4271-1.581-4.2999-3.5132zm-24.172-16.522c-2.0269-1.0706-3.9532-2.3801-4.2808-2.9102s18.993-14.056 42.935-30.057l43.531-29.094.0483-39.702.0483-39.702 8.5673-16.992 24.418-17.333c13.43-9.5331 29.368-20.811 35.418-25.061 6.05-4.2504 20.9-14.702 33-23.225 70.92-49.958 118.85-82.97 119.88-82.573 1.9207.73706 8.5497 18.121 9.5008 24.916 2.3797 17-5.2169 33.951-22.036 49.172-3.4076 3.0837-11.629 9.4183-18.27 14.077-15.236 10.688-80.599 55.667-120.51 82.925l-30.431 20.786-9.6792-.69278c-11.293-.80825-14.337.22369-18.43 6.246-3.3505 4.9308-3.1924 8.019.87703 17.131 3.0327 6.7907 3.4817 8.9483 4.1 19.701l.69428 12.075-47.112 31.175c-25.911 17.146-47.444 31.155-47.85 31.131-.40615-.0243-2.3968-.92009-4.4236-1.9906zm136.92-37.501c-4.1849-2.8437-4.9114-6.3354-2.141-10.291 1.3628-1.9456 2.3314-2.2287 6.75-1.9725l5.1589.2991.31223 3.7813c.33028 3.9999-2.9052 10.719-5.1616 10.719-.65247 0-2.8658-1.1412-4.9184-2.536zm-105.7-33.597c.0535-32.742 2.3553-41.471 13.697-51.943 5.766-5.3236 17.763-13.924 19.424-13.924.46405 0 .84372 14.843.84372 32.984v32.984l-15.191 10.159c-8.3548 5.5877-16.005 10.372-17 10.633-1.705.44586-1.8074-.76-1.7745-20.893zm71.139-24.181c-2.7586-2.9364-2.8016-7.6183-.10173-11.051 2.9528-3.7539 6.1519-3.399 9.8546 1.093 3.997 4.8491 3.8747 6.6552-.65933 9.7361-4.6134 3.1349-6.3177 3.1764-9.0936.2216zm-85.015-20.727c-2.4504-2.8453-4.1043-5.658-3.7974-6.4578.84554-2.2034 11.088-4.8652 13.583-3.5298 3.8022 2.0349 3.4658 8.7083-.66947 13.278-2.5295 2.7951-4.4834 2.0899-9.1165-3.29zm50.559-35.574c-1.3209-1.3209-.83635-14.387.53223-14.353 1.974.0502 16.868 10.969 16.274 11.93-.29369.4752-2.3316 1.1282-4.5287 1.451-2.1971.32285-5.6968.83501-7.777 1.1381-2.0802.3031-4.1052.2281-4.5-.16667z" fill="#6c5192"/><path d="m139.75 769.27c-11.811-.28419-13.75-.5569-13.75-1.934 0-3.5398 8.8022-17.967 15-24.586l6.5-6.9417 20.237 5.445 6.3427-3.3787c9.2566-4.9309 17.684-13.117 20.979-20.379 3.0907-6.8117 10.206-30.949 11.963-40.583.8275-4.537.96818-14.474.4802-33.917-.57312-22.836-.4198-29.152.90391-37.239 2.0969-12.811 2.0108-20.592-.3834-34.65-1.0876-6.3861-2.445-16.962-3.0165-23.503-1.1906-13.627-.86047-11.943-6.5866-33.608-5.5007-20.813-7.0088-32.909-5.5944-44.872 1.5115-12.783 5.5798-22.296 17.078-39.929 11.016-16.894 14.465-24.34 19.566-42.229 5.2019-18.246 5.8147-22.479 5.361-37.04-.48671-15.621-.17408-15.169-13.521-19.544-6.9122-2.2656-10.639-2.8872-17.309-2.8872-13.3 0-18.83 3.7298-29.5 19.898-2.2 3.3335-4.397 6.0702-4.8822 6.0816-.48519.0114-3.2702-3.9379-6.1888-8.7762-10.351-17.159-9.5942-28.578 3.022-45.58l4.7318-6.3769 5.552.65252c34.243 4.0246 38.725 2.8767 49.118-12.579 5.8484-8.6971 4.1588-9.1696-10.585-2.9597-14.816 6.24-18.131 7.1274-26.657 7.1343l-6.8889.006.5525-6.093c.38708-4.2688 1.4111-7.4818 3.4202-10.732 9.3672-15.151 43.531-30.199 82.274-36.239 15.701-2.448 34.031-3.6413 34.031-2.2158 0 .56478-2.2418 5.021-4.9818 9.9028-2.74 4.8818-4.99 9.6755-5 10.653-.01.9773 2.6254 5.2523 5.8564 9.5 18.278 24.03 31.256 52.796 38.494 85.326 2.6134 11.746 6.6197 40.89 6.6448 48.339.0189 5.6214.88311 8.3023 2.8288 8.7755.91165.22171 4.5826-.0742 8.1576-.65755l6.5-1.0607 4.1497-8.5c11.149-22.838 12.283-34.021 5.9283-58.5-4.8044-18.508-5.3319-25.688-2.6451-36 2.8022-10.755 10.556-26.041 18.768-37 8.501-11.344 28.476-31.331 42.8-42.826 13.371-10.729 34.27-24.908 56.907-38.608 18.43-11.154 36.947-23.79 110.59-75.464 93.284-65.454 115.41-80.493 116.62-79.254 1.3703 1.4075 5.8651 13.41 7.457 19.913.65174 2.6623.97818 8.6857.74033 13.661-.37078 7.7551-.89386 9.8415-4.071 16.238-4.7312 9.5253-12.659 18.825-23.524 27.592-7.6737 6.1928-75.92 53.115-182.48 125.46l-33.755 22.918-10.296-.68967c-10.025-.67153-10.372-.62364-13.216 1.8226-1.6064 1.3818-4.7334 6.2747-6.9489 10.873l-4.0282 8.3608-10.5 6.6648c-8.2171 5.2158-12.131 7.0386-18 8.3838-9.6699 2.2163-14.599 4.7461-17.035 8.7417-2.3317 3.8261-1.9894 6.654 2.1868 18.065l2.8748 7.8549-.52706 65.118-14.5 9.776c-18.489 12.466-26.415 16.647-42.5 22.423-15.759 5.6591-23.56 9.8473-30.991 16.639-10.87 9.9348-18.477 23.048-22.603 38.965-7.2641 28.024 7.3072 58.882 36.049 76.342 19.201 11.664 44.092 12.603 64.83 2.4459 8.7722-4.2965 20.415-13.834 25.879-21.201 5.5852-7.5293 11.737-20.082 13.81-28.177 2.3417-9.1469 1.9596-22.239-1.0063-34.481-2.424-10.005-2.4552-10.513-.7487-12.161 4.026-3.8876 88.96-59.01 92.232-59.859 1.9517-.50641 5.7986-1.4674 8.5486-2.1354 8.0663-1.9596 9.7884-3.2989 14.484-11.264 3.7304-6.3279 5.8203-8.5645 12.906-13.813 11.881-8.7998 34.316-23.828 35.565-23.824.57452.002 2.2996 3.0636 3.8334 6.804 9.2076 22.454 7.487 36.307-6.8552 55.193-9.17 12.075-14.377 15.998-85.934 64.74-29.15 19.856-54.983 38.05-57.406 40.431-4.5983 4.518-16.094 21.336-16.094 23.545 0 2.2695 39.51 46.585 64 71.784 8.0178 8.25 18.349 19.177 22.958 24.281s8.7588 8.9022 9.2221 8.4389c.46331-.46331-.0795-3.5149-1.2062-6.7813-4.2618-12.355-5.9739-21.152-5.9565-30.605.0503-27.373 16.616-53.412 38.139-59.949 13.514-4.1049 24.567.06 41.651 15.695l7.3071 6.6874-.65295 8.1169c-.90636 11.267-2.9095 20.611-5.5214 25.756-3.3227 6.5448-12.015 19.861-12.965 19.861-1.0942 0-3.1788-7.3463-6.952-24.5-4.8341-21.977-8.0366-33.88-9.5237-35.4-1.1706-1.1961-2.4893-.75967-9.0644 3-9.3849 5.3663-14.124 9.9644-18.251 17.706-6.6476 12.472-7.959 29.971-3.1879 42.538 2.9009 7.6414 11.38 20.152 24.206 35.715 14.215 17.248 19.115 24.336 24.304 35.158 7.7411 16.142 10.068 30.816 7.099 44.759-6.3625 29.876-26.639 38.115-61.506 24.99-10.386-3.9092-11.677-4.1792-14.5-3.031-1.7045.69322-7.6043 2.7607-13.111 4.5944-16.208 5.3975-23.997 5.8296-90.486 5.02-32.174-.39174-58.698-.91212-58.942-1.1564-1.6736-1.6736 8.0864-21.061 13.832-27.476l4.7809-5.3379 6.0846 2.7306c12.183 5.4676 20.266 6.9777 37.938 7.088 11.453.0714 16.552-.25325 17.41-1.1086 2.0229-2.017-2.7627-7.9192-17.559-21.656-19.954-18.525-25.158-24.772-32.012-38.428-4.5445-9.0552-6.6133-18.177-6.6309-29.238-.0277-17.455 2.5985-23.328 18.313-40.955 3.1802-3.5674 5.7823-7.1036 5.7823-7.8584 0-4.0778-17.352 6.0639-27.014 15.788-5.5317 5.5678-10.122 11.647-15.622 20.689-1.0852 1.7841-1.6376 1.6959-12.5-1.9972-16.514-5.6146-39.151-14.755-49.86-20.134-8.4945-4.2662-9.529-4.5599-11.793-3.3482-7.0962 3.7978-16.173 18.085-23.725 37.346-1.5096 3.85-5.3388 12.625-8.5093 19.5s-6.9563 16.296-8.4129 20.934c-2.4423 7.7782-3.2177 11.95-5.3092 28.566l-.75526 6-5 .26131c-9.2165.48168-9.0296.32175-12.481 10.68-3.1848 9.5598-7.8603 17.77-14.27 25.058l-3.5178 4-27.366.0526c-15.051.029-33.553-.0963-41.116-.27822zm427.03-17.827c14.847-6.2021 17.445-27.23 6.3013-51.01-5.3669-11.453-10.853-19.634-24.802-36.983-12.536-15.592-15.882-19.188-16.903-18.166-.72187.72186.16223 3.1982 5.4307 15.212 7.8678 17.94 8.3881 20.864 9.0753 51 .60125 26.365.67413 27.102 3.0967 31.333 2.6817 4.6839 9.2869 10.167 12.248 10.167 1.0093 0 3.5082-.69887 5.553-1.553zm-224.28-205.42c-11.679-1.8596-21.737-7.3207-30.256-16.428-20.755-22.188-20.268-53.898 1.156-75.142 11.564-11.467 23.402-16.473 38.899-16.447 25.561.0421 48.532 19.273 52.727 44.141 3.1879 18.9-2.7377 37.013-16.391 50.104-5.1705 4.9575-15.831 10.756-23.134 12.583-5.9966 1.5005-17.355 2.0877-23 1.1889zm71.688-107.99c-1.2034-1.6277-2.171-3.3152-2.1501-3.75.0209-.43477 21.283-14.753 47.25-31.818l47.212-31.027.10195-17.473.10194-17.473 8.7961-17.952 30-20.926c57.067-39.807 97.468-67.672 98.921-68.23 1.8021-.69152 5.4509 6.1897 8.4647 15.964 6.5917 21.377-2.2997 42.139-26.321 61.464-6.2086 4.9946-56.662 40.049-75.778 52.65l-5.7137 3.7663-20.417-.32082-9.8792 10.018c-5.4336 5.51-11.768 11.548-14.078 13.418-7.574 6.1341-80.955 54.649-82.659 54.649-.91493 0-2.6481-1.3318-3.8516-2.9595zm-25.08-17.116c-2.8562-1.7413-3.1723-2.2731-2-3.3648.76581-.71313 19.728-13.536 42.139-28.496 22.411-14.96 41.423-27.876 42.25-28.703 1.2865-1.2865 1.506-7.2243 1.522-41.182l.0187-39.679 4.2576-7.948c4.8411-9.0373-1.6405-3.8986 58.705-46.543 85.157-60.178 154.07-108.18 156.08-108.73 1.1549-.31296 2.4497 1.5083 4.7841 6.7291 4.6136 10.318 6.4585 19.099 5.725 27.248-1.7678 19.64-14.393 35.119-46.678 57.229-9.5778 6.5591-29.564 20.313-44.414 30.564-46.744 32.267-97.084 66.654-99.359 67.872-1.6796.89888-4.0699.88341-10.275-.0665-7.6811-1.1758-8.2936-1.1275-12.226.96471-5.0765 2.7009-9.0399 8.255-9.0399 12.668 0 1.8059 1.5525 6.5967 3.45 10.646 3.3483 7.1458 3.45 7.7258 3.45 19.685v12.322l-46 30.42c-25.3 16.731-46.675 30.422-47.5 30.424-.825.002-3.0266-.92721-4.8924-2.0647zm136.95-37.736c-2.7769-2.3183-3.2526-3.2711-2.7107-5.4301.96223-3.8338 3.3532-5.7583 7.1542-5.7583 6.2515 0 8.214 4.6766 4.511 10.75-2.4309 3.9869-4.5779 4.092-8.9544.43835zm-104.36-27.438c-.66486-16.432.41554-32.182 2.761-40.25 1.8913-6.5058 6.5092-13.425 11.825-17.717 7.3085-5.9013 15.991-11.783 17.395-11.783 1.1123 0 1.3044 5.6999 1.0872 32.25l-.26385 32.25-15 10.196c-8.25 5.6079-15.492 10.22-16.093 10.25-.7203.0355-1.304-5.1503-1.7105-15.196zm70.316-30.237c-2.1606-2.2998-2.2449-2.7926-1.1204-6.546 1.6972-5.6648 5.1554-7.2056 8.7132-3.882 2.4432 2.2825 5.9194 7.8321 5.2188 8.3318-7.6242 5.438-9.3992 5.7284-12.812 2.0962zm-84.486-20.046c-2.0431-2.4933-3.4722-5.1653-3.1757-5.9377.29642-.77245 2.2513-1.88 4.3442-2.4612 7.6145-2.1145 10.305-.94017 10.305 4.4973 0 3.692-3.3468 8.4349-5.9521 8.4349-.99382 0-3.4786-2.04-5.5216-4.5333zm50.474-41.85c0-3.6391.37943-6.6165.84317-6.6165s4.1294 2.3078 8.146 5.1286c8.2973 5.827 8.1582 6.286-2.2391 7.3886l-6.75.71583z" fill="#583982"/><path d="m126.6 768.17c-1.2003-1.9422 8.1205-17.739 14.47-24.523l6.5728-7.023 8.6511 2.3249c10.647 2.8614 13.947 2.4342 22.065-2.8563 13.447-8.7638 17.026-14.574 24.258-39.383 5.4236-18.605 6.368-28.058 5.1716-51.763-.94743-18.773-.4273-31.115 1.8024-42.768 1.8725-9.7866 1.7782-14.273-.59218-28.166-1.0992-6.4424-2.424-16.842-2.944-23.111-1.0942-13.19-2.3362-19.431-8.2383-41.398-4.1997-15.631-4.2986-16.358-4.2808-31.5.0171-14.585.18608-15.943 2.8618-23 3.3784-8.9103 5.7567-13.205 14.674-26.5 11.39-16.982 15.849-27.724 22.031-53.079 2.9039-11.91 3.1101-13.869 2.6348-25.028-.2836-6.6587-.99801-13.008-1.5876-14.11-2.3673-4.4233-23.07-10.771-32.245-9.8862-11.363 1.0954-17.902 5.7582-27.017 19.265l-5.0981 7.555-2.9509-4.3588c-12.511-18.479-13.02-30.747-1.9313-46.537 6.8739-9.7881 6.2065-9.476 16.64-7.7824 10.722 1.7403 24.855 1.8944 29.551.32222 5.4627-1.829 9.6906-5.5722 14.553-12.884 6.9837-10.502 5.0064-11.311-10.969-4.4872-16.727 7.1451-28.821 9.4609-31.643 6.0595-1.8182-2.1908.455-11.554 3.9898-16.434 11.222-15.491 49.834-31.081 87.969-35.517 23.389-2.7211 26-2.8697 26-1.48 0 .70276-2.25 5.235-5 10.072s-5 9.5226-5 10.413c0 .89051 1.7664 3.7289 3.9254 6.3075 7.1531 8.5436 17.157 24.424 23.138 36.727 12.786 26.305 20.913 58.378 23.949 94.52 1.3434 15.99.8385 15.214 9.3576 14.374 3.8876-.38308 7.7926-1.0841 8.6779-1.5579 1.7594-.94161 8.4155-14.674 12.105-24.974 1.9616-5.4762 2.3214-8.3901 2.284-18.5-.0384-10.369-.49012-13.631-3.3237-24-4.2052-15.388-4.9892-25.986-2.643-35.731 7.4432-30.916 39.757-66.884 90.03-100.21 9.35-6.1979 23.075-14.902 30.5-19.342 14.009-8.3782 47.302-31.208 125-85.718 66.869-46.912 98.28-68.446 99.101-67.938 1.4616.90329 6.9947 16.961 8.1342 23.606 3.1043 18.103-6.4868 36.509-27.906 53.553-4.8562 3.8644-23.229 16.832-40.829 28.817-17.6 11.985-55.85 38.063-85 57.951s-61.325 41.806-71.5 48.707l-18.5 12.547-10.223-.50415c-12.998-.64098-14.119.0126-19.424 11.333-4.2932 9.1615-5.2366 10.076-18.853 18.27-6.1804 3.7192-10.524 5.5361-15.916 6.6576-11.499 2.3916-17.084 6.8227-17.084 13.555 0 1.7187 1.4098 7.1968 3.1328 12.174l3.1328 9.0486.11717 32.112.11718 32.112-11.5 7.8171c-19.838 13.485-28.948 18.457-43.557 23.772-23.164 8.4277-32.18 14.223-42.021 27.013-5.3736 6.9833-11.55 19.741-13.991 28.898-2.6314 9.8712-2.2722 24.49.83928 34.167 7.6175 23.689 26.756 42.84 50.564 50.597 9.6861 3.1559 26.009 3.5576 36.167.89012 24.538-6.4437 43.965-24.958 52.625-50.153 3.7705-10.97 3.9357-25.428.45998-40.257-1.3222-5.6413-2.2197-10.425-1.9943-10.631s20.435-13.57 44.91-29.698c38.482-25.358 45.379-29.549 51-30.986 15.883-4.0612 14.474-3.1968 20.034-12.294 5.5983-9.1613 9.347-12.327 35.389-29.886l13.077-8.8173 2.7561 6.1521c6.4741 14.451 7.7714 27.462 3.7954 38.064-4.5572 12.152-14.394 24.323-28.552 35.329-4.4 3.4204-32.975 23.227-63.5 44.014-31.668 21.566-57.996 40.203-61.313 43.403-6.231 6.0111-15.687 20.5-15.687 24.036 0 2.9988 48.27 57.345 68.01 76.572 3.9529 3.85 11.669 12.062 17.147 18.25 8.7289 9.8594 12.843 13.203 12.843 10.438 0-.44683-1.3647-4.8343-3.0326-9.75-8.1641-24.061-7.3987-41.07 2.7321-60.708 5.7182-11.085 14.287-20.192 23.245-24.706 15.404-7.7625 28.941-4.0398 47.445 13.048l6.8888 6.3613-.63459 10.372c-.4215 6.8888-1.4166 12.609-2.9632 17.034-2.3292 6.6641-13.076 25.163-14.619 25.163-.92317 0-2.6662-6.5832-7.6784-29-1.9061-8.525-4.4176-18.988-5.581-23.25-1.868-6.8439-2.3877-7.75-4.4453-7.75-3.0092 0-15.511 7.4884-20.007 11.984-5.4402 5.4397-11.179 18.073-12.552 27.632-2.7393 19.074 3.096 31.987 28.19 62.384 16.448 19.924 22.549 29.742 27.652 44.5 2.4543 7.0976 2.7717 9.4663 2.8135 21 .0374 10.31-.34875 14.138-1.8661 18.5-5.3587 15.405-14.712 23.376-28.911 24.638-7.8718.70012-16.986-1.2214-31.377-6.6153-9.3563-3.5068-11.492-3.9899-13.318-3.0127-4.7457 2.5398-22.454 8.0659-28.779 8.9806-3.7543.54299-34.518.97796-69.952.98906l-63.25.01981v-2.1343c0-3.793 8.5395-20.221 13.134-25.266l4.4626-4.9006 7.952 3.0623c12.873 4.9575 22.084 6.4916 38.383 6.3931 16.702-.10097 18.783-.88331 15.542-5.8443-2.0059-3.0706-10.443-11.594-26.044-26.31-11.988-11.308-18.343-19.582-23.631-30.766-6.3117-13.349-8.345-27.841-5.6729-40.435 1.9132-9.0169 5.7069-15.099 18.126-29.058 11.384-12.796 5.1849-13.009-13.052-.44886-8.572 5.9037-14.486 12.214-21.412 22.848l-5.0229 7.7117-13.632-4.807c-18.682-6.588-37.347-14.125-47.009-18.983-4.4429-2.2339-9.0886-4.0616-10.324-4.0616-3.2511 0-12.676 10.334-17.096 18.746-2.0266 3.8566-5.6701 11.904-8.0967 17.883s-6.6374 15.596-9.3574 21.371c-8.1256 17.252-11.572 29.531-13.051 46.5l-.69736 8-6.7827.58267c-3.7305.32046-7.244 1.044-7.8078 1.6078-.56382.56382-1.7094 3.6453-2.5456 6.8478-2.1408 8.1979-7.4284 18.234-13.366 25.369l-5.0708 6.0932h-40.405c-22.222 0-40.636-.37505-40.92-.83344zm438.5-15.305c5.7271-1.9175 9.9966-5.833 12.628-11.581 2.2775-4.9748 2.4496-6.3327 2.0416-16.107-.4921-11.788-1.766-16.394-7.8955-28.55-5.2579-10.427-9.9099-17.152-23.924-34.581-13.57-16.878-15.533-18.862-17.1-17.295-.80202.80202.40882 4.5885 4.4533 13.926 9.3382 21.56 10.12 25.7 10.257 54.325.12128 25.312.44138 27.631 4.5373 32.868 1.9931 2.5482 9.4793 8.1323 10.902 8.1323.38516 0 2.2299-.51215 4.0995-1.1381zm-229.6-209.17c-9.767-3.2806-12.493-4.8683-19.506-11.361-10.533-9.7516-16.448-20.668-18.061-33.334-3.485-27.357 17.385-54.938 45.417-60.022 25.112-4.5542 52.229 12.364 59.808 37.313 2.8139 9.264 2.2709 26.23-1.1217 35.049-5.4575 14.187-16.233 25.079-30.335 30.664-6.9737 2.7618-9.7722 3.3073-18.701 3.6451-9.0423.34207-11.472.0708-17.5-1.954zm79.593-105.3c-1.181-1.5015-1.9978-3.1785-1.8151-3.7267.45982-1.3795 6.5054-5.4783 51.722-35.067 21.725-14.216 40.328-26.791 41.339-27.944 1.6821-1.9169 1.7891-3.5098 1.2513-18.625l-.5881-16.529 8.5655-17 25.466-17.899c14.006-9.8445 43.241-30.236 64.966-45.313l39.5-27.414 2.7356 6.0239c3.5925 7.911 6.7644 19.514 6.7644 24.744 0 11.09-7.7262 26.166-19.418 37.89-10.036 10.064-13.006 12.293-50.082 37.588-45.825 31.265-39.532 27.88-51.844 27.88h-10.505l-7.8254 8.6058c-4.304 4.7332-10.525 10.745-13.825 13.359-5.959 4.7205-80.431 54.688-82.945 55.653-.72257.27727-2.2801-.72433-3.4611-2.2258zm-25.454-18.021c-1.6486-.89319-2.4872-1.9228-1.9796-2.4304.48439-.48439 19.768-13.5 42.852-28.924s42.289-28.825 42.676-29.78c.38775-.95486.49021-18.836.22769-39.736l-.47732-38 8.564-17 19.999-14.294c25.188-18.003 112.23-79.226 156.98-110.41 38.638-26.927 34.476-25.631 39.672-12.35 2.3248 5.943 3.2761 10.238 3.627 16.377 1.2854 22.486-10.848 38.952-46.864 63.599-9.5802 6.5561-33.844 23.259-53.919 37.117-20.075 13.858-48.425 33.357-63 43.33l-26.5 18.133-21.133-1.2615-3.7347 3.2792c-7.5838 6.6587-8.3564 11.941-3.2926 22.51 3.0272 6.3188 3.3946 8.0813 3.9225 18.817l.58246 11.845-45.957 30.405c-25.276 16.723-46.729 30.387-47.672 30.365-.94375-.022-3.003-.73739-4.5762-1.5897zm138.36-36.589c-3.7795-2.5411-4.7741-5.4574-2.9949-8.7819.94091-1.7581 1.896-2.0541 5.8128-1.8016 4.6022.29675 4.6924.3678 4.9902 3.9344.22152 2.6524-.31927 4.356-2.0048 6.3156l-2.3081 2.6834zm-106-32.209c0-30.491 2.4233-41.136 11.404-50.094 4.7655-4.7535 15.632-12.788 19.091-14.115 1.3624-.52279 1.5045 2.978 1.2699 31.274l-.2642 31.862-14.466 9.75c-7.9563 5.3625-15.044 9.75-15.75 9.75-.99883 0-1.284-4.0923-1.284-18.428zm71.189-25.611c-2.5751-2.399-2.7628-4.95-.66288-9.0107 2.2837-4.4161 5.1008-3.9796 9.2588 1.4345 3.0341 3.9508 2.819 4.9077-1.6706 7.431-4.7053 2.6445-4.2527 2.635-6.9253.14518zm-83.28-18.711c-6.7672-7.5468-6.6214-7.0541-2.5864-8.74 7.4904-3.1297 12.821-.83919 11.119 4.7778-.68665 2.2661-4.2819 6.7122-5.4277 6.7122-.35123 0-1.7483-1.2375-3.1045-2.75zm48.71-37.965c-1.0765-1.0765-.68138-11.285.43681-11.285 1.5486 0 12.945 7.9163 12.945 8.992 0 .50458-1.6875 1.1816-3.75 1.5046s-4.9344.77147-6.3819.9967c-1.4476.22524-2.9101.1314-3.25-.20853z" fill="#482777"/><path d="m127 767.37c0-.34723 1.9125-4.2407 4.25-8.6521 2.5524-4.817 6.8464-10.735 10.75-14.815l6.5-6.7944 7.944 2.4465c4.3692 1.3456 9.0312 2.4465 10.36 2.4465 6.4052 0 24.292-13.348 28.23-21.066 2.2238-4.3589 5.647-14.5 10.273-30.434l3.1935-11 .0652-35c.0429-23.038.47016-36.841 1.25-40.386 1.7306-7.8681 1.451-20.951-.73983-34.614-1.0583-6.6-2.2156-15.6-2.5718-20-.98362-12.152-2.227-18.468-7.2842-37l-4.6391-17-.0401-17c-.04-16.927-.0261-17.035 3.2349-25.126 1.8013-4.4695 7.3263-14.3 12.278-21.844s9.8793-15.436 10.951-17.536c5.4831-10.748 13.616-37.797 14.942-49.696.90536-8.1232.026-26.915-1.3647-29.165-1.6106-2.6061-14.222-7.1576-25.081-9.0517-7.246-1.2639-14.957.23973-21.803 4.2518-4.2666 2.5004-12.062 11.606-15.305 17.877-.79408 1.5356-1.8878 2.792-2.4305 2.792-1.3904 0-7.9905-10.571-10.153-16.261-2.6471-6.9658-2.4049-16.933.56472-23.239 2.3313-4.9512 11.082-17.5 12.204-17.5.3201 0 6.0585.72106 12.752 1.6024 18.353 2.4164 28.433.87145 34.932-5.3538 4.2299-4.0516 11.037-15.028 10.38-16.738-.94471-2.4619-4.198-1.785-16.704 3.4751-13.505 5.6806-18.215 6.9558-25.817 6.9903l-5.3788.0245.68949-5.25c1.2725-9.6895 7.3246-17.036 20.188-24.505 21.668-12.581 54.37-21.396 88.706-23.909l8.8265-.64616-3.6327 6.4052c-1.998 3.5228-4.5934 8.31-5.7675 10.638l-2.1347 4.233 3.2132 4.267c29.303 38.912 42.687 74.748 48.034 128.61 1.295 13.044 2.2276 18.613 3.2278 19.274 1.5123 1.0002 11.95.185 15.673-1.2241 2.3942-.90612 6.7542-9.3891 12.538-24.395 2.8508-7.3958 3.0787-8.9063 3.0177-20-.0442-8.0363-.60698-13.817-1.7038-17.5-3.352-11.256-5.7813-23.695-5.8592-30-.28577-23.156 19.39-54.082 52.74-82.895 18.719-16.172 35.905-28.263 66.547-46.815 9.1008-5.5102 29.126-18.703 44.5-29.318 24.773-17.104 105.53-73.607 120.64-84.406 3.1286-2.2363 12.129-8.4866 20-13.89 7.8714-5.4031 20.148-13.832 27.28-18.731 7.1329-4.8991 13.239-8.5784 13.569-8.1763 1.258 1.5318 5.9574 14.968 7.063 20.193.65151 3.0796.90919 8.7189.59077 12.929-.69727 9.2196-5.0101 18.515-13.083 28.199-9.5546 11.461-11.874 13.161-98.07 71.91-29.454 20.075-63.562 43.335-75.795 51.689s-29.938 20.37-39.344 26.702l-17.1 11.513-10.433-.59081c-10.122-.57321-10.52-.51555-13.371 1.9368-1.6162 1.3902-4.7512 6.2899-6.9667 10.888l-4.0282 8.3608-10.836 6.7818c-8.4306 5.2765-12.375 7.1056-17.772 8.2409-9.0297 1.8994-14.193 4.6099-16.792 8.8143-2.7938 4.5205-2.6724 6.3219 1.1492 17.044l3.25 9.1187v64.874l-14.449 9.7267c-18.449 12.419-26.479 16.653-42.551 22.436-16.517 5.943-22.923 9.3449-30.486 16.189-10.928 9.8889-18.213 21.906-22.643 37.352-4.735 16.507-2.3366 35.497 6.4314 50.922 9.4373 16.603 26.077 30.232 43.96 36.008 19.569 6.3206 42.195 3.0923 59.683-8.5158 14.091-9.3528 24.994-23.829 30.763-40.845 2.7621-8.146 3.0928-10.353 3.0192-20.148-.0577-7.6907-.70607-13.38-2.1551-18.91-1.1399-4.3505-2.0725-8.7538-2.0725-9.7852 0-1.3583 9.8551-8.3852 35.75-25.491 19.662-12.988 39.084-25.823 43.158-28.521 9.8062-6.4935 11.295-7.1795 20.092-9.2558 4.125-.97362 8.6329-2.3504 10.018-3.0594 1.3989-.71635 4.4371-4.644 6.8374-8.8392 3.9854-6.9656 5.2226-8.1994 15.982-15.94 15.056-10.83 29.836-20.699 31.001-20.699 2.4863 0 9.1615 20.818 9.1615 28.572 0 6.3855-3.7692 17.61-8.255 24.582-8.0417 12.5-17.791 21.087-45.245 39.854-59.519 40.685-62.709 42.861-80.5 54.899-16.995 11.499-24.189 17.601-29.01 24.608-5.1459 7.4792-8.9904 14.561-8.9904 16.561 0 2.9233 38.919 46.805 66.453 74.925 8.347 8.525 18.221 19.1 21.941 23.5s7.4044 8.3599 8.1856 8.7997 1.4204 1.2867 1.4204 1.882 1.9931 5.4894 4.4292 10.876c2.4361 5.3865 5.9053 14.215 7.7094 19.618l3.2801 9.8244.15708 25.717.15708 25.717 2.6823 5.4825c3.0691 6.2731 9.4023 11.584 13.814 11.584 6.6086 0 13.464-4.6229 17.053-11.5 2.8896-5.5362 3.5459-19.718 1.3155-28.424-2.0237-7.8994-7.9922-20.743-13.84-29.783-5.7598-8.9038-31.752-41.284-33.172-41.324-1.2266-.0341-5.9806-13.665-8.7086-24.97-7.4619-30.922 10.521-66.956 37.142-74.426 5.8184-1.6326 6.6034-1.637 12.983-.0736 7.9666 1.9523 14.954 6.2869 25.429 15.773l7.4693 6.7649-.52605 5.2305c-2.0732 20.614-3.5531 25.196-12.633 39.116l-4.4914 6.8854-1.5538-4.8854c-.85459-2.687-2.0208-7.1354-2.5915-9.8854-2.6012-12.533-7.3599-32.611-9.1842-38.75-2.3193-7.8045-3.2185-8.1686-10.704-4.3338-17.31 8.8672-25.889 22.007-26.97 41.309-1.1692 20.877 2.9118 28.962 33.709 66.775 15.078 18.513 21.611 31.436 24.697 48.849 1.59 8.9736 1.5969 10.292.0974 18.752-2.7038 15.254-8.6374 24.733-18.52 29.586-5.1628 2.5352-6.7189 2.8073-15.73 2.7499-9.2294-.0588-10.925-.40048-22-4.4342-6.8325-2.4885-13.722-4.3607-16-4.3476-2.2.0126-7.15 1.2729-11 2.8007-15.783 6.2631-10.995 5.91-85.25 6.2879-37.538.19107-68.25.16392-68.25-.0603 0-.22425 1.3033-3.5682 2.8961-7.4309 3.3303-8.076 8.635-16.65 12.502-20.208 2.4594-2.2627 2.9235-2.3535 5.8858-1.1518 7.2128 2.926 17.961 6.1044 23.904 7.0688 6.8315 1.1086 31.651 1.4221 34.23.43242.94068-.36094 1.5818-1.7858 1.5818-3.5154 0-3.0788-3.7704-7.1753-28.419-30.878-20.05-19.28-28.581-36.456-28.581-57.547 0-15.417 3.3168-22.872 16.901-37.987 7.6782-8.5434 10.135-13.466 6.7216-13.466-5.0345 0-23.25 11.621-30.265 19.308-4.1228 4.5179-9.9755 12.604-13.857 19.144-.90837 1.5306-2.1454 1.2778-13.5-2.759-18.432-6.5531-36.575-13.957-46.868-19.127-5.0005-2.5114-10.037-4.5662-11.192-4.5662-3.0518 0-12.948 10.366-17.184 18-1.9839 3.575-5.4969 11.225-7.8067 17s-6.205 14.775-8.656 20c-9.5686 20.398-12.822 31.036-14.45 47.25l-1.1799 11.75h-6.7725c-4.3311 0-7.0566.45061-7.5605 1.25-.43336.6875-1.9815 4.9442-3.4402 9.4594-3.0502 9.4411-5.9331 14.705-12.404 22.648l-4.5962 5.6423h-40.445c-22.245 0-40.445-.2841-40.445-.63133zm208.95-224.19c-9.2684-3.0656-15.74-7.214-22.602-14.488-20.551-21.785-20.107-52.191 1.0692-73.227 13.74-13.649 30.443-19.01 47.788-15.337 21.484 4.5489 38.978 22.994 41.852 44.128 3.3922 24.944-9.2171 47.219-32.272 57.01-6.4574 2.7424-8.5809 3.1293-18.781 3.4217-9.1354.26191-12.642-.0481-17.055-1.5077zm79.659-105.33c-.88206-1.2593-1.6038-2.6519-1.6038-3.0947s7.0875-5.4466 15.75-11.12c62.093-40.665 78.256-51.67 78.338-53.339.0482-.98541.0142-8.7973-.0756-17.36l-.16337-15.568 3.948-8.5454c3.9056-8.4537 4.054-8.6203 13.826-15.522 26.034-18.388 73.005-51.078 109.38-76.121 3.575-2.4615 7.2569-5.1248 8.182-5.9186 1.5149-1.2998 1.8857-1.044 3.7316 2.5742 9.5655 18.75 9.1984 34.21-1.1959 50.366-9.8407 15.295-16.296 20.388-83.648 65.999l-17.431 11.804h-20.945l-11.668 11.75c-11.114 11.192-13.563 13.018-51.597 38.451-21.961 14.685-40.67 26.978-41.576 27.317-1.0595.39688-2.2178-.19939-3.25-1.673zm-24.494-17.544c-1.8645-.78125-2.9895-1.7854-2.5-2.2315.4895-.44609 19.902-13.515 43.14-29.042l42.25-28.231v-79.898l4.2271-8.1003c4.5798-8.776 2.8424-7.2279 28.962-25.808 30.013-21.349 124.64-87.752 169.28-118.79 11.071-7.6972 16.206-10.735 16.739-9.9013.42287.66148 2.1016 4.3808 3.7306 8.2651 6.148 14.66 5.9586 26.886-.62665 40.438-2.9178 6.0046-5.6552 9.4983-13.729 17.522-8.9847 8.9291-16.11 14.164-65.341 48-56.973 39.157-70.361 48.336-92.911 63.704l-13.168 8.9734-9.4959-.71193c-8.6828-.65098-9.8318-.52317-13.418 1.4927-4.653 2.6151-9.2499 9.247-9.2499 13.345 0 1.6082 1.55 6.3569 3.4444 10.553 3.0464 6.7472 3.5248 8.9722 4.1396 19.256l.69513 11.627-5.3896 3.4709c-2.9643 1.909-23.39 15.382-45.39 29.941s-40.45 26.713-41 27.01c-.55.29684-2.5255-.0995-4.39-.88075zm136.52-37.373c-2.6013-2.0462-3.2122-4.2592-2.0279-7.3456.42603-1.1102 1.9166-1.5818 5-1.5818 4.2971 0 4.393.0716 4.393 3.2775 0 3.1935-2.3 7.7225-3.9218 7.7225-.44464 0-1.9941-.93266-3.4433-2.0726zm-104.6-33.57c.064-36.432 2.5935-42.584 23.762-57.791 2.9134-2.0929 5.529-3.5733 5.8124-3.2898.96192.96192 1.6788 40.164.93309 51.023l-.74168 10.799-13.448 9.0008c-7.3966 4.9505-14.102 9.2516-14.9 9.558-1.24.47582-1.4469-2.3422-1.4171-19.3zm70.076-24.738c-2.1254-2.2624-2.1617-2.5624-.72534-6 1.8972-4.5406 4.5118-4.7171 8.0251-.54181 3.3282 3.9553 3.2529 5.0381-.49847 7.1733-3.926 2.2345-4.1263 2.216-6.8013-.63146zm-84.47-19.862c-3.8418-4.625-3.6928-5.0215 2.56-6.8148 3.8836-1.1138 6.7985.36894 6.7985 3.4581 0 2.3607-3.4397 7.5997-4.9896 7.5997-.46446 0-2.4305-1.9093-4.3689-4.243zm50.359-40.632c0-2.8188.23192-5.125.51538-5.125 1.1308 0 11.485 7.34 11.485 8.1416 0 .47213-1.2938.85842-2.875.85842s-4.2812.28125-6 .625l-3.125.625z" fill="#411e72"/></g></svg>
